<?xml version="1.0" standalone="no"?><!DOCTYPE svg PUBLIC "-//W3C//DTD SVG 1.1//EN" "http://www.w3.org/Graphics/SVG/1.1/DTD/svg11.dtd"><svg t="1643126033900" class="icon" viewBox="0 0 1080 1024" version="1.1" xmlns="http://www.w3.org/2000/svg" p-id="10409" xmlns:xlink="http://www.w3.org/1999/xlink" width="210.9375" height="200"><defs><style type="text/css"></style></defs><path d="M984.530995 834.453494a23.916695 23.916695 0 0 1 6.935842-16.622103 19.61169 19.61169 0 0 0 4.305005-22.122943 105.113875 105.113875 0 0 0-15.067518-23.916695 21.764193 21.764193 0 0 0-21.285858-7.055425 29.417535 29.417535 0 0 1-19.731274-2.870004 25.232113 25.232113 0 0 1-11.958348-14.11085 21.166275 21.166275 0 0 0-17.459187-14.230433 111.930133 111.930133 0 0 0-29.656702 0 21.166275 21.166275 0 0 0-17.578771 14.230433 24.514613 24.514613 0 0 1-11.958348 14.11085 28.939201 28.939201 0 0 1-19.731273 2.870004 21.644609 21.644609 0 0 0-21.405442 7.055425 100.689287 100.689287 0 0 0-14.947935 23.916695 19.850857 19.850857 0 0 0 4.185422 22.122943 23.079611 23.079611 0 0 1 0 33.244206 19.850857 19.850857 0 0 0-4.544172 21.883776 102.243872 102.243872 0 0 0 14.947934 23.916696 21.764193 21.764193 0 0 0 21.405443 7.055425 29.656702 29.656702 0 0 1 19.731273 2.870003 25.232113 25.232113 0 0 1 11.958348 14.11085 20.807525 20.807525 0 0 0 17.459187 14.230434 115.398054 115.398054 0 0 0 29.656702 0 21.166275 21.166275 0 0 0 17.459188-14.230434 25.232113 25.232113 0 0 1 11.958347-14.11085 29.417535 29.417535 0 0 1 19.731274-2.870003 21.525026 21.525026 0 0 0 21.644609-6.457508 105.113875 105.113875 0 0 0 15.067518-23.916695 19.731274 19.731274 0 0 0-4.305005-22.122943 23.916695 23.916695 0 0 1-6.816259-16.980854z m-78.80551 78.685927a88.491772 88.491772 0 0 1-21.046692 0 47.83339 47.83339 0 0 0-22.72086-25.830031 53.095063 53.095063 0 0 0-35.037959-5.381256 75.69634 75.69634 0 0 1-10.045012-16.143769 46.039638 46.039638 0 0 0 0-62.661741 75.69634 75.69634 0 0 1 10.045012-16.14377 52.97548 52.97548 0 0 0 35.037959-5.381256A48.431308 48.431308 0 0 0 884.91796 755.767567a88.491772 88.491772 0 0 1 21.046692 0 47.83339 47.83339 0 0 0 22.601277 25.830031 53.095063 53.095063 0 0 0 35.037958 5.381256 76.294258 76.294258 0 0 1 10.164596 16.14377 45.680888 45.680888 0 0 0 0 62.661741 76.294258 76.294258 0 0 1-10.164596 16.143769 53.095063 53.095063 0 0 0-35.037958 5.381256 47.83339 47.83339 0 0 0-22.840444 25.830031z" fill="#50B3EA" p-id="10410"></path><path d="M938.371774 834.453494a43.289218 43.289218 0 1 0-43.169635 43.289218 43.289218 43.289218 0 0 0 43.169635-43.289218z m-22.960028 0a20.329191 20.329191 0 1 1-20.209607-20.329191 20.329191 20.329191 0 0 1 20.209607 20.329191z" fill="#50B3EA" p-id="10411"></path><path d="M26.547771 1016.459544A26.427948 26.427948 0 0 1 0.000239 989.912013a518.992285 518.992285 0 0 1 831.105157-414.356744 26.786699 26.786699 0 0 1 5.142089 37.190461 26.427948 26.427948 0 0 1-37.070877 5.142089A466.375556 466.375556 0 0 0 52.856135 990.270763 26.308365 26.308365 0 0 1 26.547771 1016.459544z" fill="#444444" p-id="10412"></path><path d="M514.209185 510.143108a255.071554 255.071554 0 1 1 255.191138-255.071554A255.430304 255.430304 0 0 1 514.209185 510.143108z m0-458.124296a203.291909 203.291909 0 1 0 203.291909 203.291909 203.291909 203.291909 0 0 0-203.291909-203.291909z" fill="#444444" p-id="10413"></path><path d="M894.245471 1023.993303a182.603968 182.603968 0 1 1 186.071889-182.603967 184.517303 184.517303 0 0 1-186.071889 182.603967z m0-332.561646A149.957679 149.957679 0 1 0 1047.551487 841.389336a151.871014 151.871014 0 0 0-153.306016-149.957679z" fill="#50B3EA" p-id="10414"></path><path d="M8.131916 1017.177045m0-25.830031l0 0.119584q0-25.830031 25.83003-25.830031l617.648653 0q25.830031 0 25.830031 25.830031l0-0.119584q0 25.830031-25.830031 25.830031l-617.648653 0q-25.830031 0-25.83003-25.830031Z" fill="#444444" p-id="10415"></path></svg>